<svg xmlns="http://www.w3.org/2000/svg" viewBox="0 0 400 300" fill="none">
  <defs>
    <filter id="blur" x="-50%" y="-50%" width="200%" height="200%">
      <feGaussianBlur stdDeviation="3"/>
    </filter>
  </defs>
  
  <!-- Fundo marrom claro -->
  <rect width="400" height="300" fill="#D3C4B4"/>
  
  <!-- Peças do quebra-cabeça coloridas -->
  <!-- Rosa choque com estrela -->
  <rect x="50" y="80" width="40" height="30" fill="#FF69B4" rx="5"/>
  <polygon points="70,85 75,95 85,95 77,102 80,112 70,107 60,112 63,102 55,95 65,95" fill="#FF1493"/>
  
  <!-- Amarelo brilhante com semicírculo -->
  <rect x="100" y="70" width="35" height="25" fill="#FFFF00" rx="4"/>
  <path d="M110 75 Q125 75 125 87.5 Q125 100 110 100" fill="#FFD700"/>
  
  <!-- Verde limão -->
  <rect x="150" y="90" width="30" height="20" fill="#32CD32" rx="3"/>
  
  <!-- Laranja -->
  <rect x="200" y="75" width="35" height="28" fill="#FF8C42" rx="4"/>
  
  <!-- Azul retangular -->
  <rect x="250" y="85" width="40" height="22" fill="#4169E1" rx="3"/>
  
  <!-- Azul com hexágono -->
  <rect x="300" y="70" width="30" height="25" fill="#1E90FF" rx="3"/>
  <polygon points="315,75 320,80 320,85 315,90 310,85 310,80" fill="#0000FF"/>
  
  <!-- Mãos da criança -->
  <ellipse cx="180" cy="150" rx="25" ry="15" fill="#FFE4B5" filter="url(#blur)"/>
  <ellipse cx="220" cy="145" rx="20" ry="12" fill="#FFE4B5" filter="url(#blur)"/>
  
  <!-- Peças conectadas -->
  <rect x="60" y="50" width="80" height="60" fill="rgba(255, 107, 53, 0.3)" rx="8"/>
  <rect x="200" y="40" width="70" height="50" fill="rgba(255, 255, 0, 0.3)" rx="6"/>
  
  <!-- Detalhes das mãos -->
  <circle cx="175" cy="145" r="2" fill="#333"/>
  <circle cx="185" cy="145" r="2" fill="#333"/>
  <circle cx="215" cy="140" r="2" fill="#333"/>
  <circle cx="225" cy="140" r="2" fill="#333"/>
</svg>
