<svg xmlns="http://www.w3.org/2000/svg" viewBox="0 0 400 300" fill="none">
  <defs>
    <filter id="blur" x="-50%" y="-50%" width="200%" height="200%">
      <feGaussianBlur stdDeviation="8"/>
    </filter>
    <radialGradient id="warmGradient" cx="50%" cy="50%" r="50%">
      <stop offset="0%" style="stop-color:#FFD700;stop-opacity:0.8"/>
      <stop offset="50%" style="stop-color:#FF8C42;stop-opacity:0.6"/>
      <stop offset="100%" style="stop-color:#FF6B35;stop-opacity:0.4"/>
    </radialGradient>
  </defs>
  
  <!-- Fundo desfocado com tons quentes -->
  <rect width="400" height="300" fill="url(#warmGradient)"/>
  
  <!-- Círculos desfocados para simular folhas de outono -->
  <circle cx="100" cy="80" r="60" fill="rgba(255, 215, 0, 0.4)" filter="url(#blur)"/>
  <circle cx="300" cy="100" r="80" fill="rgba(255, 140, 66, 0.5)" filter="url(#blur)"/>
  <circle cx="200" cy="200" r="70" fill="rgba(255, 107, 53, 0.3)" filter="url(#blur)"/>
  <circle cx="350" cy="250" r="50" fill="rgba(255, 165, 0, 0.4)" filter="url(#blur)"/>
  
  <!-- Rosto da criança -->
  <circle cx="200" cy="150" r="50" fill="#FFE4B5"/>
  
  <!-- Cabelo castanho claro -->
  <path d="M150 120 Q200 100 250 120 Q250 140 200 160 Q150 140 150 120" fill="#D2691E"/>
  
  <!-- Franja -->
  <path d="M160 120 Q200 110 240 120 Q240 130 200 140 Q160 130 160 120" fill="#CD853F"/>
  
  <!-- Olhos castanhos -->
  <circle cx="185" cy="140" r="6" fill="#8B4513"/>
  <circle cx="215" cy="140" r="6" fill="#8B4513"/>
  
  <!-- Brilho nos olhos -->
  <circle cx="187" cy="138" r="2" fill="#FFFFFF"/>
  <circle cx="217" cy="138" r="2" fill="#FFFFFF"/>
  
  <!-- Nariz -->
  <circle cx="200" cy="150" r="3" fill="#DEB887"/>
  
  <!-- Sorriso gentil -->
  <path d="M185 160 Q200 170 215 160" stroke="#8B4513" stroke-width="2" fill="none" stroke-linecap="round"/>
  
  <!-- Roupa clara -->
  <rect x="170" y="200" width="60" height="40" fill="#F5F5DC" rx="5"/>
  
  <!-- Detalhes da roupa -->
  <rect x="180" y="210" width="40" height="20" fill="#FFFFFF" rx="3"/>
</svg>
